Coordinates
version=1
nRows=12
nColumns=42
inDegrees=yes

Units are S.I. units (second, meters, Newtons, ...)
If the header above contains a line with 'inDegrees', this indicates whether rotational values are in degrees (yes) or radians (no).

endheader
time	pelvis_tilt	pelvis_list	pelvis_rotation	pelvis_tx	pelvis_ty	pelvis_tz	hip_flexion_r	hip_adduction_r	hip_rotation_r	knee_angle_r	knee_adduction_r	knee_angle_r_beta	ankle_angle_r	subtalar_angle_r	mtp_angle_r	hip_flexion_l	hip_adduction_l	hip_rotation_l	knee_angle_l	knee_adduction_l	knee_angle_l_beta	ankle_angle_l	subtalar_angle_l	mtp_angle_l	lumbar_extension	lumbar_bending	lumbar_rotation	arm_flex_r	arm_add_r	arm_rot_r	elbow_flex_r	pro_sup_r	wrist_flex_r	wrist_dev_r	arm_flex_l	arm_add_l	arm_rot_l	elbow_flex_l	pro_sup_l	wrist_flex_l	wrist_dev_l
      0.60000000	     -2.76722469	     -0.63059192	     -1.83360253	     -0.70384798	      0.85748264	     -0.39260282	     27.53066943	     -0.86535644	     -8.81767583	     21.89500208	      4.87763399	      0.38213988	      1.81629034	     -6.27725669	     -7.88621176	    -10.06416648	     -2.37690826	     -0.29751381	      3.89731437	     10.96356066	      0.06802097	     18.04736217	     -2.14422896	     -7.88621176	     -4.76631318	      1.37358124	      0.58543885	     -4.71260013	    -14.93520710	      1.57334408	     31.46422056	     90.00000001	      0.00000000	      0.00000000	      9.84058641	    -12.76208702	    -13.68919091	     33.52856956	     90.00000001	      0.00000000	      0.00000000
      0.61000000	     -2.77177536	     -0.50126768	     -1.54374126	     -0.69193353	      0.85543687	     -0.39260978	     27.21943435	     -1.12038920	     -9.19090788	     18.88119858	      5.03120681	      0.32953908	      1.72020504	     -4.86799403	     -7.86980026	    -10.84789504	     -2.28973076	     -0.20919857	      4.09356437	     11.03925027	      0.07144618	     18.43160525	     -1.88063140	     -7.86980026	     -4.61870149	      1.36556049	      0.09178855	     -5.12194748	    -15.06674277	      1.19289273	     31.45411031	     90.00000001	      0.00000000	      0.00000000	     10.11029688	    -12.87677246	    -13.41130482	     33.73157446	     90.00000001	      0.00000000	      0.00000000
      0.62000000	     -3.07440581	     -0.13923067	     -1.30185639	     -0.68011773	      0.85300598	     -0.39269936	     27.36507104	     -1.64267648	     -9.40204297	     16.45321106	      5.22948870	      0.28716271	      1.52590795	     -3.59231703	     -7.86302025	    -11.20285594	     -1.87028172	     -0.05840850	      4.46444886	     10.93429514	      0.07791933	     18.69591530	     -1.72314492	     -7.86302025	     -4.12804067	      1.11345473	     -0.38248845	     -5.57524084	    -15.21719454	      0.97301545	     31.51438608	     90.00000001	      0.00000000	      0.00000000	     10.27521823	    -12.97771941	    -13.20202924	     33.94361155	     90.00000001	      0.00000000	      0.00000000
      0.63000000	     -2.87802767	     -0.24589157	     -0.96280190	     -0.66781723	      0.85129290	     -0.39237624	     26.69763008	     -1.60368366	     -9.71632983	     13.97835876	      5.26085170	      0.24396838	      1.55699721	     -2.24312120	     -7.84879634	    -12.18773570	     -2.17227578	      0.14873344	      4.74189942	     11.15104974	      0.08276176	     18.95610216	     -1.58623344	     -7.84879634	     -4.20201384	      1.33376266	     -0.86887901	     -5.89524630	    -15.31543739	      0.42652081	     31.41134203	     90.00000001	      0.00000000	      0.00000000	     10.45618836	    -13.09574169	    -12.81836402	     34.21973636	     90.00000001	      0.00000000	      0.00000000
      0.64000000	     -2.98218821	     -0.18338725	     -0.68606040	     -0.65563112	      0.84930680	     -0.39210754	     26.52844656	     -1.76078803	     -9.91359896	     12.20459102	      5.31255905	      0.21301030	      1.51123556	     -1.07705650	     -7.83464242	    -12.72095283	     -2.23044890	      0.42574892	      5.23830654	     11.23526218	      0.09142570	     19.11246400	     -1.47641288	     -7.83464242	     -3.94241855	      1.38565755	     -1.31746052	     -6.24270893	    -15.44468902	      0.05837659	     31.36664829	     90.00000001	      0.00000000	      0.00000000	     10.53579002	    -13.19022265	    -12.52869821	     34.50020826	     90.00000001	      0.00000000	      0.00000000
      0.65000000	     -3.26022671	     -0.04761256	     -0.46507288	     -0.64345785	      0.84727577	     -0.39188192	     26.63774825	     -2.00194043	     -9.91005985	     11.00417719	      5.39434394	      0.19205912	      1.45696455	     -0.20223610	     -7.82923358	    -12.99323518	     -2.15881380	      0.76260727	      5.85994637	     11.22029960	      0.10227536	     19.09942220	     -1.43192375	     -7.82923358	     -3.48772273	      1.37927417	     -1.72621850	     -6.58906615	    -15.62597626	     -0.15561863	     31.36195013	     90.00000001	      0.00000000	      0.00000000	     10.53360990	    -13.24144742	    -12.35242711	     34.74018117	     90.00000001	      0.00000000	      0.00000000
      0.66000000	     -3.41405249	     -0.09693110	     -0.21637785	     -0.63116160	      0.84561481	     -0.39138497	     26.56778487	     -1.99372856	     -9.88820455	     10.12949111	      5.34475138	      0.17679297	      1.48182434	      0.55579490	     -7.82319312	    -13.30402103	     -2.39180852	      1.11417417	      6.67731867	     11.35510456	      0.11654120	     18.96940538	     -1.51776290	     -7.82319312	     -3.18783431	      1.54391947	     -2.11835229	     -6.84535369	    -15.75621582	     -0.45711081	     31.24026209	     90.00000001	      0.00000000	      0.00000000	     10.49581196	    -13.29375687	    -12.11739194	     35.07244220	     90.00000001	      0.00000000	      0.00000000
      0.67000000	     -3.54986028	     -0.21379188	     -0.10099390	     -0.61885847	      0.84419552	     -0.39075190	     26.60477195	     -1.87014676	     -9.80444561	      9.89850635	      5.27035673	      0.17276153	      1.48481891	      0.93229698	     -7.81889514	    -13.61025442	     -2.66571191	      1.48924263	      7.53098866	     11.47502904	      0.13144055	     18.66925039	     -1.56163664	     -7.81889514	     -2.94368210	      1.79691290	     -2.30412034	     -7.08091463	    -15.94514049	     -0.67704159	     31.10113798	     90.00000001	      0.00000000	      0.00000000	     10.47730064	    -13.24450940	    -11.96825869	     35.40085822	     90.00000001	      0.00000000	      0.00000000
      0.68000000	     -3.66536329	     -0.21596991	     -0.15519355	     -0.60606253	      0.84299449	     -0.38994319	     26.64482851	     -1.80724500	     -9.57935389	     10.10563586	      5.21365626	      0.17637662	      1.43710997	      1.06665616	     -7.81706008	    -14.07242533	     -2.75281036	      1.82821111	      8.13550675	     11.53501711	      0.14199138	     18.49055785	     -1.48403560	     -7.81706008	     -2.62464634	      1.92244972	     -2.40906420	     -7.33923659	    -16.16876030	     -0.77181487	     31.01310485	     90.00000001	      0.00000000	      0.00000000	     10.31996120	    -13.24833979	    -11.94523609	     35.48551030	     90.00000001	      0.00000000	      0.00000000
      0.69000000	     -3.76007764	     -0.81979803	      0.28855074	     -0.59361635	      0.84227893	     -0.38902124	     26.38880133	     -1.15058471	     -9.53705160	     10.12503072	      4.90419309	      0.17671512	      1.43215885	      1.26236680	     -7.80996832	    -13.83897405	     -3.85877326	      1.95564762	     10.17436942	     12.04775145	      0.17757625	     17.23242851	     -2.30390236	     -7.80996832	     -2.44374611	      2.66402710	     -2.93951761	     -7.34184073	    -16.22917407	     -1.26451079	     30.68418338	     90.00000001	      0.00000000	      0.00000000	      9.97909334	    -13.25558819	    -11.63845790	     36.20852212	     90.00000001	      0.00000000	      0.00000000
      0.70000000	     -3.79283088	     -1.34644449	      0.38262659	     -0.58076307	      0.84184961	     -0.38790523	     26.18569547	     -0.48575296	     -9.33238240	     10.67541867	      4.69157370	      0.18632120	      1.15401851	      1.00200256	     -7.80264178	    -13.91062895	     -4.68938833	      2.16248565	     11.73540864	     12.35959811	      0.20482152	     16.33037041	     -2.98093283	     -7.80264178	     -2.27466175	      3.35082485	     -3.07373708	     -7.38813025	    -16.37221405	     -1.66329160	     30.34790889	     90.00000001	      0.00000000	      0.00000000	      9.66696306	    -13.14588427	    -11.47454273	     36.62053255	     90.00000001	      0.00000000	      0.00000000
      0.71000000	     -3.80494058	     -1.79145188	      0.42877396	     -0.56785657	      0.84171309	     -0.38677243	     25.94995508	      0.10037163	     -8.96014259	     11.45520419	      4.53068329	      0.19993103	      0.95927116	      0.54542752	     -7.79581845	    -13.86927329	     -5.41599809	      2.32869103	     13.52043167	     12.68177327	      0.23597605	     15.01828431	     -3.66638423	     -7.79581845	     -2.13187866	      3.94276613	     -3.14857811	     -7.41839245	    -16.54011949	     -1.94052220	     30.06296417	     90.00000001	      0.00000000	      0.00000000	      9.31408644	    -13.02982738	    -11.40807863	     37.03346905	     90.00000001	      0.00000000	      0.00000000
